# AST/ASF file generated using VICON BodyLanguage
# -----------------------------------------------
:version 1.10
:name VICON
:units
  mass 1.0
  length 0.45
  angle deg
:documentation
   .ast/.asf automatically generated from VICON data using
   VICON BodyBuilder and BodyLanguage model FoxedUp or BRILLIANT.MOD
:root
   order TX TY TZ RX RY RZ
   axis XYZ
   position 0 0 0  
   orientation 0 -0 0 
:bonedata
  begin
     id 1 
     name lhipjoint
     direction 0.500677 -0.737119 0.453848 
     length 2.34727 
     axis 0 -0 0  XYZ
  end
  begin
     id 2 
     name lfemur
     direction 0.34202 -0.939693 0  
     length 7.53653  
     axis 0 -0 20  XYZ
    dof rx ry rz
    limits (-160.0 20.0)
           (-70.0 70.0)
           (-60.0 70.0)
  end
  begin
     id 3 
     name ltibia
     direction 0.34202 -0.939693 0   
     length 6.85572   
     axis 0 -0 20   XYZ
    dof rx
    limits (-10.0 170.0)
  end
  begin
     id 4 
     name lfoot
     direction 0.155313 -0.426718 0.890949   
     length 2.18324   
     axis -90 -1.13533e-015 20   XYZ
    dof rx rz
    limits (-45.0 90.0)
           (-70.0 20.0)
  end
  begin
     id 5 
     name ltoes
     direction 1.53474e-011 -4.21647e-011 1   
     length 1.06748   
     axis -90 -1.13533e-015 20   XYZ
    dof rx
    limits (-90.0 20.0)
  end
  begin
     id 6 
     name rhipjoint
     direction -0.632471 -0.659587 0.406111   
     length 2.62319  
     axis 0 -0 0  XYZ 
  end
  begin
     id 7 
     name rfemur
     direction -0.34202 -0.939693 0   
     length 7.21735   
     axis 0 -0 -20   XYZ
    dof rx ry rz
    limits (-160.0 20.0)
           (-70.0 70.0)
           (-70.0 60.0)
  end
  begin
     id 8 
     name rtibia
     direction -0.34202 -0.939693 0   
     length 7.02558   
     axis 0 -0 -20   XYZ
    dof rx
    limits (-10.0 170.0)
 end
 begin
     id 9 
     name rfoot
     direction -0.16057 -0.441164 0.882945   
     length 2.10014  
     axis -90 1.13533e-015 -20   XYZ
    dof rx rz
    limits (-45.0 90.0)
           (-20.0 70.0)
  end
  begin
     id 10 
     name rtoes
     direction -1.53553e-011 -4.2192e-011 1   
     length 1.02554   
     axis -90 1.13533e-015 -20   XYZ
    dof rx
    limits (-90.0 20.0)
  end
  begin
     id 11 
     name lowerback
     direction 0.0401429 0.998861 -0.0258085   
     length 1.80848   
     axis 0 -0 0   XYZ
    dof rx ry rz
    limits (-20.0 45.0)
           (-30.0 30.0)
           (-30.0 30.0)
  end
  begin
     id 12 
     name upperback
     direction -0.0130978 0.999914 -0.000352645   
     length 1.8116   
     axis 0 -0 0   XYZ
    dof rx ry rz
    limits (-20.0 45.0)
           (-30.0 30.0)
           (-30.0 30.0)
  end
  begin
     id 13 
     name thorax
     direction -0.0300198 0.999453 0.0138573   
     length 1.81778   
     axis 0 -0 0   XYZ
    dof rx ry rz
    limits (-20.0 45.0)
           (-30.0 30.0)
           (-30.0 30.0)
  end
  begin
     id 14 
     name lowerneck
     direction -0.0401726 0.999191 -0.00173647   
     length 2.10594   
     axis 0 -0 0   XYZ
    dof rx ry rz
    limits (-20.0 45.0)
           (-30.0 30.0)
           (-30.0 30.0)
  end
  begin
     id 15 
     name upperneck
     direction 0.0119835 0.998501 0.0534085   
     length 2.07325   
     axis 0 -0 0   XYZ
    dof rx ry rz
    limits (-20.0 45.0)
           (-30.0 30.0)
           (-30.0 30.0)
  end
  begin
     id 16
     name head
     direction 0.00628309 0.999826 0.0175921  
     length 2.15096  
     axis 0 -0 0   XYZ
    dof rx ry rz
    limits (-20.0 45.0)
           (-30.0 30.0)
           (-30.0 30.0)
  end
  begin
     id 17 
     name lclavicle
     direction 0.895501 0.429681 -0.115981  
     length 4.18092  
     axis 0 -0 0   XYZ
    dof ry rz
    limits (-20.0 10.0)
           (0.0 20.0)
  end
  begin
     id 18 
     name lhumerus
     direction 1 -4.48961e-011 -3.38433e-028   
     length 5.77237   
     axis 180 -30 -90   XYZ
    dof rx ry rz
    limits (-60.0 90.0)
           (-90.0 90.0)
           (-90.0 90.0)
  end
  begin
     id 19
     name lradius
     direction 1 -4.4901e-011 1.11983e-026   
     length 2.91878   
     axis 180 -30 -90   XYZ
    dof rx
    limits (-10.0 170.0)
  end
  begin
     id 20
     name lwrist
     direction 1 -4.48934e-011 1.88176e-026   
     length 1.45939   
     axis -1.23311e-014 90 90   XYZ
    dof ry
    limits (-180.0 0.0)
 end
  begin
     id 21 
     name lhand
     direction 1 -4.4895e-011 3.76352e-026   
     length 1.06566   
     axis -2.40147e-014 90 90   XYZ
    dof rx rz
    limits (-90.0 90.0)
           (-45.0 45.0)
  end
  begin
     id 22 
     name lfingers
     direction 1 -4.49005e-011 7.52705e-026   
     length 0.859162   
     axis -4.80295e-014 90 90   XYZ
    dof rx
    limits (0.0 90.0)
  end
  begin
     id 23
     name lthumb
     direction 0.707107 -6.34885e-011 0.707107   
     length 1.23359   
     axis -90 45 -9.86935e-015   XYZ
    dof rx rz
    limits (-45.0 45.0)
           (-45.0 45.0)
  end
  begin
     id 24 
     name rclavicle
     direction -0.91006 0.40451 -0.0903492   
     length 4.23293  
     axis 0 -0 0   XYZ 
    dof ry rz
    limits (-10.0 20.0)
           (-20.0 0.0)
  end
  begin
     id 25 
     name rhumerus
     direction -1 -4.4897e-011 1.7415e-027  
     length 5.49854   
     axis 180 30 90   XYZ
    dof rx ry rz
    limits (-90.0 60.0)
           (-90.0 90.0)
           (-90.0 90.0)
  end
  begin
     id 26 
     name rradius
     direction -1 -4.48963e-011 1.21259e-026   
     length 3.1186   
     axis 180 30 90   XYZ
    dof rx
    limits (-10.0 170.0)
  end
  begin
     id 27 
     name rwrist
     direction -1 -4.48967e-011 1.88176e-026   
     length 1.5593   
     axis -1.23311e-014 -90 -90   XYZ
    dof ry
    limits (-180.0 0.0)
  end
  begin
     id 28
     name rhand
     direction -1 -4.4895e-011 3.76352e-026   
     length 0.71207   
     axis -2.40147e-014 -90 -90   XYZ
    dof rx rz
    limits (-90.0 90.0)
           (-45.0 45.0)
  end
  begin
     id 29
     name rfingers
     direction -1 -4.49005e-011 7.52705e-026   
     length 0.574089   
     axis -4.80295e-014 -90 -90   XYZ
    dof rx
    limits (0.0 90.0)
  end
  begin
     id 30
     name rthumb
     direction -0.707107 -6.34982e-011 0.707107   
     length 0.824281   
     axis -90 -45 9.86935e-015   XYZ
    dof rx rz
    limits (-45.0 45.0)
           (-45.0 45.0)
  end
:hierarchy
  begin
    root lhipjoint rhipjoint lowerback
    lhipjoint lfemur
    lfemur ltibia
    ltibia lfoot
    lfoot ltoes
    rhipjoint rfemur
    rfemur rtibia
    rtibia rfoot
    rfoot rtoes
    lowerback upperback
    upperback thorax
    thorax lowerneck lclavicle rclavicle
    lowerneck upperneck
    upperneck head
    lclavicle lhumerus
    lhumerus lradius
    lradius lwrist
    lwrist lhand lthumb
    lhand lfingers
    rclavicle rhumerus
    rhumerus rradius
    rradius rwrist
    rwrist rhand rthumb
    rhand rfingers
  end

#!OML:ASF C:\ViconDB\ViconDB\414\Spring2016\042216\male.ASF
:FULLY-SPECIFIED
:DEGREES
349
root 18.5591 16.5495 1.82959 -174.984 50.8047 -173.717
lowerback 11.639 -2.23618 6.80066
upperback 0.328056 -2.02798 -0.29038
thorax -6.45078 -1.1823 -3.79837
lowerneck -3.26862 5.03341 -3.51553
upperneck -15.567 7.57947 0.143154
head -4.7538 4.2292 0.394232
rclavicle -1.99033e-014 1.70955e-014
rhumerus 40.7555 -0.978988 -43.6468
rradius 104.271
rwrist -6.63813
rhand 13.1587 -22.8478
rfingers 7.12502
rthumb 38.1157 -48.6154
lclavicle -1.99033e-014 1.70955e-014
lhumerus 29.8853 8.03739 52.45
lradius 102.066
lwrist 22.5314
lhand -4.29714 9.45486
lfingers 7.12502
lthumb 21.4686 38.2852
rfemur -24.7774 -7.06465 24.6613
rtibia 50.2608
rfoot -20.95 -9.71397
rtoes -7.4702
lfemur -29.9621 3.55234 -15.7723
ltibia 53.7329
lfoot -24.4293 9.40344
ltoes -19.4194
350
root 18.6445 16.8512 1.80994 -175.578 50.5154 -173.453
lowerback 10.8142 -2.18365 6.55616
upperback 0.122921 -2.04054 -0.0528557
thorax -6.18749 -1.17885 -3.42286
lowerneck -2.7844 5.18665 -3.4033
upperneck -14.4831 7.66102 0.275608
head -4.44706 4.20299 0.427113
rclavicle -2.75814e-014 -1.11319e-014
rhumerus 40.0871 -1.14468 -43.1914
rradius 104.257
rwrist -7.14757
rhand 13.664 -23.423
rfingers 7.12502
rthumb 38.5927 -49.0585
lclavicle -2.75814e-014 -1.11319e-014
lhumerus 28.7932 8.33759 51.8537
lradius 101.83
lwrist 21.3592
lhand -4.0184 9.68054
lfingers 7.12502
lthumb 21.7363 38.4801
rfemur -21.0782 -7.07895 24.719
rtibia 45.2072
rfoot -17.7651 -9.51054
rtoes -8.32241
lfemur -26.677 3.97122 -15.3433
ltibia 49.1878
lfoot -21.5286 7.87764
ltoes -19.8948
351
root 18.7136 17.1398 1.78753 -175.849 50.1322 -173.207
lowerback 9.62246 -2.164 6.55708
upperback -0.0913083 -2.10147 0.0700115
thorax -5.74423 -1.20468 -3.31116
lowerneck -2.28535 5.24762 -3.13109
upperneck -13.5813 7.63646 0.349211
head -4.20198 4.13063 0.411043
rclavicle 6.7885e-014 2.18663e-015
rhumerus 39.153 -1.25078 -43.0122
rradius 104.525
rwrist -7.45037
rhand 14.1729 -24.0102
rfingers 7.12502
rthumb 39.0725 -49.5094
lclavicle 6.7885e-014 2.18663e-015
lhumerus 27.6793 8.49842 51.3179
lradius 101.748
lwrist 20.1738
lhand -3.72698 10.0738
lfingers 7.12502
lthumb 22.0161 38.8408
rfemur -18.0136 -7.32057 24.7493
rtibia 40.2457
rfoot -13.7056 -9.25296
rtoes -9.77766
lfemur -23.995 4.28728 -14.9238
ltibia 44.7133
lfoot -18.0721 6.03297
ltoes -20.3014
352
root 18.7687 17.4183 1.76046 -176.248 49.7963 -173.169
lowerback 8.45158 -2.22432 6.66707
upperback -0.289329 -2.26453 0.0506056
thorax -5.31538 -1.28578 -3.39906
lowerneck -1.7463 5.37833 -3.04714
upperneck -12.829 7.74946 0.688382
head -4.04864 4.13251 0.503692
rclavicle -2.3028e-014 -1.31198e-014
rhumerus 38.1418 -1.09837 -43.434
rradius 104.792
rwrist -7.22908
rhand 14.5218 -24.5032
rfingers 7.12502
rthumb 39.4014 -49.9071
lclavicle -2.3028e-014 -1.31198e-014
lhumerus 26.2335 8.66821 50.6801
lradius 101.973
lwrist 19.1214
lhand -3.73365 10.8215
lfingers 7.12502
lthumb 22.0097 39.5892
rfemur -15.1863 -7.87403 24.5632
rtibia 35.4248
rfoot -9.00799 -8.81384
rtoes -11.6008
lfemur -21.4989 4.52092 -14.6852
ltibia 40.3264
lfoot -13.915 4.30862
ltoes -21.2285
353
root 18.8102 17.7045 1.73873 -176.368 49.6573 -172.762
lowerback 7.42681 -2.26172 6.89129
upperback -0.421721 -2.36384 0.210929
thorax -4.88992 -1.33067 -3.37262
lowerneck -1.00977 5.51079 -3.19135
upperneck -12.5553 7.87292 0.888112
head -4.11223 4.16736 0.571141
rclavicle 1.19069e-014 -1.47101e-014
rhumerus 37.1324 -0.730545 -43.9123
rradius 105.251
rwrist -6.94198
rhand 14.0532 -24.9769
rfingers 7.12502
rthumb 38.9597 -50.5085
lclavicle 1.19069e-014 -1.47101e-014
lhumerus 24.5562 8.98925 50.3469
lradius 102.399
lwrist 18.0037
lhand -4.10279 11.1931
lfingers 7.12502
lthumb 21.6552 40.0021
rfemur -12.6046 -7.71694 24.5982
rtibia 30.8203
rfoot -3.91989 -9.05956
rtoes -13.388
lfemur -19.224 4.69782 -14.0919
ltibia 36.2366
lfoot -9.09546 2.68612
ltoes -21.4964
354
root 18.8425 17.9987 1.71811 -176.514 49.8981 -172.662
lowerback 6.39853 -2.20442 7.04128
upperback -0.617957 -2.35494 0.235105
thorax -4.51952 -1.32588 -3.46147
lowerneck -0.371861 5.68488 -3.39971
upperneck -12.2447 8.06431 1.18063
head -4.15538 4.23616 0.680724
rclavicle -1.63423e-014 7.55382e-015
rhumerus 35.8015 -0.375206 -44.833
rradius 105.997
rwrist -7.0524
rhand 13.6434 -25.1907
rfingers 7.12502
rthumb 38.5732 -50.8317
lclavicle -1.63423e-014 7.55382e-015
lhumerus 22.5699 9.07273 50.1179
lradius 102.976
lwrist 16.1531
lhand -5.19027 11.5985
lfingers 7.12502
lthumb 20.6106 40.5243
rfemur -10.2871 -5.45154 24.4642
rtibia 26.5369
rfoot 1.12999 -11.5531
rtoes -14.0511
lfemur -17.5785 4.35165 -13.6499
ltibia 32.7877
lfoot -3.45124 2.22139
ltoes -21.2486
355
root 18.8733 18.3131 1.69722 -175.989 50.3948 -172.155
lowerback 5.00961 -2.0447 7.35737
upperback -0.821371 -2.22404 0.365894
thorax -3.94068 -1.25419 -3.55552
lowerneck 0.317859 5.85165 -3.62296
upperneck -12.118 8.25208 1.44194
head -4.27615 4.30899 0.776643
rclavicle 5.12554e-014 1.37161e-014
rhumerus 34.2002 -0.0140825 -45.7963
rradius 106.89
rwrist -6.98825
rhand 12.8231 -24.8791
rfingers 7.12502
rthumb 37.7988 -50.7328
lclavicle 5.12554e-014 1.37161e-014
lhumerus 20.2666 9.16759 50.0393
lradius 103.967
lwrist 15.6736
lhand -6.06279 11.6115
lfingers 7.12502
lthumb 19.772 40.6259
rfemur -8.87203 -2.77412 24.5848
rtibia 22.6755
rfoot 6.92726 -14.8895
rtoes -14.459
lfemur -16.9515 2.6893 -12.8715
ltibia 30.4932
lfoot 3.00023 4.24941
ltoes -21.1135
356
root 18.905 18.6503 1.68011 -174.994 50.9027 -171.604
lowerback 2.96061 -1.83061 7.78911
upperback -0.897175 -2.09449 0.404707
thorax -2.86333 -1.16337 -3.82827
lowerneck 0.530458 5.9769 -3.60931
upperneck -11.8798 8.40367 1.58435
head -4.24368 4.36636 0.812117
rclavicle 1.60972e-013 -3.97569e-016
rhumerus 32.4246 0.302543 -47.0477
rradius 107.934
rwrist -6.446
rhand 11.5696 -24.3878
rfingers 7.12502
rthumb 36.6135 -50.5512
lclavicle 1.60972e-013 -3.97569e-016
lhumerus 17.9337 9.41397 50.1221
lradius 104.928
lwrist 15.7189
lhand -7.15538 10.76
lfingers 7.12502
lthumb 18.7214 39.8791
rfemur -8.37337 0.886341 24.6627
rtibia 19.6414
rfoot 12.0488 -20.1135
rtoes -9.7231
lfemur -17.2238 -2.09694 -11.7771
ltibia 29.4077
lfoot 8.27766 11.235
ltoes -14.2068
357
root 18.9236 19.0229 1.6806 -173.654 51.2237 -171.082
lowerback 0.691788 -1.55495 8.17242
upperback -0.974566 -1.92332 0.420146
thorax -1.65745 -1.03976 -4.09938
lowerneck 0.344689 5.95405 -3.67118
upperneck -11.4241 8.39036 1.97708
head -4.06893 4.34047 0.967867
rclavicle -1.24681e-013 -1.70955e-014
rhumerus 30.2387 0.475558 -48.382
rradius 109.198
rwrist -6.33592
rhand 10.5607 -24.1
rfingers 7.12502
rthumb 35.658 -50.4998
lclavicle -1.24681e-013 -1.70955e-014
lhumerus 15.7495 9.61029 50.6748
lradius 105.906
lwrist 16.2411
lhand -8.12371 10.0635
lfingers 7.12502
lthumb 17.7898 39.2698
rfemur -8.83384 5.90998 24.5589
rtibia 17.7085
rfoot 14.8905 -25.9352
rtoes -0.0548701
lfemur -18.0251 -10.9023 -10.4139
ltibia 29.2982
lfoot 9.0705 22.5087
ltoes 3.78903
